<svg fill="#000000" viewBox="0 0 24 24" id="podcast-2" data-name="Flat Color" xmlns="http://www.w3.org/2000/svg" class="icon flat-color"><g id="SVGRepo_bgCarrier" stroke-width="0"></g><g id="SVGRepo_tracerCarrier" stroke-linecap="round" stroke-linejoin="round"></g><g id="SVGRepo_iconCarrier"><path id="primary" d="M12,22a1,1,0,0,1-1-1V13a1,1,0,0,1,2,0v8A1,1,0,0,1,12,22Z" style="fill: #000000;"></path><path id="secondary" d="M22,12a9.9,9.9,0,0,1-2.93,7.07,1,1,0,1,1-1.41-1.42A7.91,7.91,0,0,0,20,12,8,8,0,0,0,4,12a7.88,7.88,0,0,0,2.35,5.65,1,1,0,0,1,0,1.42,1,1,0,0,1-.71.29,1,1,0,0,1-.7-.29A9.87,9.87,0,0,1,2,12a10,10,0,0,1,20,0ZM12,6A6,6,0,0,0,7.75,16.24a1,1,0,1,0,1.42-1.4A4,4,0,0,1,8,12a4,4,0,0,1,8,0,4,4,0,0,1-1.17,2.84,1,1,0,0,0,0,1.41,1,1,0,0,0,.7.29,1,1,0,0,0,.71-.3A6,6,0,0,0,12,6Zm0,4.5A1.5,1.5,0,1,0,13.5,12,1.5,1.5,0,0,0,12,10.5Z" style="fill: #2ca9bc;"></path></g></svg>