<svg xmlns="http://www.w3.org/2000/svg" height="800" width="1200" viewBox="-97.5 -162.5 845 975"><g transform="translate(5274.504 -627.749)"><ellipse style="isolation:auto;mix-blend-mode:normal;solid-color:#000;solid-opacity:1" cx="-4949.504" cy="952.75" rx="325" ry="324.998" color="#000" overflow="visible" fill="#cee5fd"/><path d="M-4950.126 627.752c-41.072 0-80.164 7.82-116.29 21.55-2.628 2.41-6.041 4.26-8.744 4.03-.362-.034-.742-.275-1.104-.411-17.808 7.436-34.7 16.547-50.72 26.882 2.083 3.372 2.7 7.126-1.587 8.95-.725.312-9.251 1.474-12.414 1.396-45.552 33.034-81.421 77.105-104.776 128.972a83.04 83.04 0 012.524-.235c3.545-.052 6.012 1.056 9.416 1.77 3.141.645 5.675 2.747 8.395 2.952 7.715.584 9.572-5.405 15.868-8.76 6.504.917 10.82-1.099 16.694-.445 4.003.441 6.896 4.712 10.016 4.951 2.625.266 4.933-2.451 7.473-2.063 2.468.38 6.722 5.75 7.124 8.76.5 3.746-2.762 7.12-1.69 11.235 3.93 3.997 11.074 4.807 16.693 7.11 3.659-3.01.483-8.594 0-12.95 0-1.917.259-3.628 0-5.395-.345-3-1.621-5.748-1.656-8.316 0-11.857 9.585-17.407 17.554-22.09 3.45-2.04 6.166-5.615 9.158-7.109 4.228-2.116 7.375-2.607 10.875-4.57 6.325-3.546 11.75-6.392 16.694-10.41 2.287-5.377.224-12.587.414-17.9 2.289-1.4 4.252.601 6.678.412 3.817-.792 4.133-6.17 6.296-8.316 1.259-1.23 4.702-2.11 6.264-3.332 3.803-2.978 5.042-7.476 8.364-8.76 1.19-.481 3.94-.35 5.82-.857 2.47-.654 5.99-3.574 10.015-4.951 2.625-.916 8.634-1.092 9.636-2.095 1.225-1.257 0-4.783.414-6.665 2.025-9.407 16.222-11.4 24.613-14.568 5.881-2.225 11.918-6.297 18.379-5.046-1.259 4.47-7.284 2.887-6.264 8.315 1.414 7.534 11.518-2.159 14.182-3.269 5.095-2.143 13.828-3.451 20.512-5.871 5.859-2.144 16.366-5.402 10.843-12.093-4.607-.265-6.828 5.396-10.843 7.11-2.774.441-2.246-2.317-4.61-2.54-2.252-.265-3.51 2.072-5.82 1.682-2.298-.377-5.525-3.984-5.883-6.665-.915-6.956 5.89-9.824 8.775-15.012-1.907-6.292-10.628-1.281-15.899-3.745.5-3.746 4.393-6.33 8.778-7.046 3.592-.607 11.66-.297 13.8 1.618 1.241 1.054 0 3.68 2.099 5.427 2.126 1.917 4.743 1.72 7.504 1.27 1-4.748-6.187-3.557-5.405-6.697 5.64-3.682 14.814-.66 21.718-1.682 3.974-.584 8.148-3.385 11.67-5.364 3.35-1.905 7.703-5.21 11.258-2.094.965 3.403-3.096 4.529-4.994 6.22-6.388 5.672-12.968 12.17-17.934 18.758 3.046 2.965 8.583 1.48 13.736 2.094 2.016.266 4.548.863 6.679 1.239 2.488.441 5.141.317 7.09.824 3.508.857 4.447 4.602 7.919 4.602 5.712-.01 5.78-6.177 2.544-10.03 1.017-3.932 2.623-5.972 1.242-8.727-2.574-5.136-12.012-.266-12.498-6.665-.31-4.155 3.484-3.97 4.993-7.078-.69-8.028 6.597-8.61 5.82-15.805-.346-3.01-2.881-3.052-4.994-5.872-1.052-1.387-1.604-4.044-2.829-5.237-9.743-.867-19.596-1.397-29.573-1.397zm-168.026 65.57c1.944.282 4.291 2.361 6.646 2.54 2.23.052 4.065-1.226 5.438-.857 3.49.917 4.962 6.18 1.69 8.76-2.73.34-3.794-1.182-5.85-.825-5.671.96-7.846 12.046-12.084 11.68-3.996-.342-6.16-10.056-2.1-12.95.26-2.526-1.846-2.931-1.724-5.427 1.207-1.535 4.63-3.187 7.95-2.92zm-18.793 1.301c1.156.035 2.035.32 2.48.826-.552 4.442-4.036 4.15-7.473 6.221-5.935 3.576-9.368 9.024-11.256 16.663-.552 2.225-6.397 8.11-9.223 7.522-6.62-1.394 1.827-13.574 3.34-15.425 1.673-2.052 3.913-3.852 5.883-6.22 1.91-2.295 3.153-5.393 4.991-6.666 2.017-1.393 7.77-3.053 11.258-2.92zm49.415 14.98c2.121.036 4.027.382 4.896 1.24-1.362 5.502-13.239 4.05-17.584 2.062.276-2.075 3.533-2.646 6.265-2.92 1.921-.052 4.306-.445 6.423-.38zm-27.03 10.157c1.415-.035 2.843.272 4.327.666-3.843 3.208-7.998 5.025-14.597 7.109-3.172.997-8.652 2.24-9.19-1.302-.655-4.334 4.64-3.326 7.536-3.713 3.648-.506 7.652-2.625 11.925-2.762zm414.66 24.692c-.5 1.18-.862 2.349-.793 3.491.259 2.011 2.465 3.945 2.956 6.665.259 1.44-.672 4.557 0 5.872 2.011 3.891 7.272 1.092 11.035 1.3-4.275-5.875-8.544-11.761-13.196-17.329zm21.338 28.66c-.604 2.87-2.555 6.616-4.135 9.013-3.639 5.525-8.582 5.783-13.802 8.728-4.351 2.463-6.224 6.572-8.775 10.855-2.765 4.626-4.478 7.42-3.34 14.123-3.73 7.386-9.379 11.911-17.107 15.425-2.286 1.028-5.408 1.407-7.505 2.92-1.673 1.197-2.62 4.416-4.992 7.077-2.928 3.253-5.997 4.625-7.537 7.11-1.19 1.917-1.604 5.738-2.925 8.315-1.782 3.5-5.578 5.214-7.918 8.76-1.07 1.64-1.777 4.962-2.957 7.11-2.644 4.797-7.163 8.253-6.678 12.472.483 4.078 5.12 4.793 5.438 8.348 0 2.009-1.328 3.237-1.242 5.427 0 3.197 2.227 5.442 2.48 7.903.621 6.186-2.109 8.655-3.275 12.885-.552 2.02-.31 4.294-.862 5.872-1.018 3.097-5.352 5.892-5.437 9.553 0 2.602 2.674 4.695 2.893 8.347 0 2.518-1.242 5.207-.794 7.522.897 4.534 8.999 9.807 12.53 13.33 4.723 4.714 10.907 8.363 12.942 13.33 1.707 4.218 1.707 9.707 4.991 12.886 2.436 2.347 6.486 3.81 9.604 6.252 2.91 2.28 6.08 4.247 9.19 6.665 5.083 3.968 12.765 11.877 20.86 11.267 4.228-.309 8.56-3.752 13.356-4.602 4.933-.883 11.335-1.337 16.313-.824 3.812.377 7.739 2.657 11.703 2.475 4.184-.265 8.982-3.354 13.736-5.427 3.825-1.663 8.52-3.503 13.674-4.856a329.7 329.7 0 003.625-48.623c0-66.546-19.937-128.227-54.058-179.638zm-538.549 109.21c-6.935.38-11.48.694-15.421 2.476-9.035 4.103-7.29 16.287-16.313 19.17-3.122.995-7.408 1.044-10.844 1.682-2.966.541-6.58 2.16-9.636 2.095-.863-.012-.909-.195-1.973-.533-.81 5.11-1.726 11.428-1.967 17.19 8.586 1.641 11.87 12.655 19.46 16.413 2.078 1.028 4.794 1.083 7.471 1.681 2.161.482 3.802 1.396 5.883 2.095 4.416 1.497 9.825 1.316 13.355 2.888 5.323 2.358 9.224 12.34 13.802 15.012.259 2.693-.517 6.308.414 8.316 2.161 2.926 5.216 2.281 8.777 4.19 4.26 2.293 5.564 8.218 9.604 10.028 1.397.618 4.888.538 7.09 1.206 5.535 1.671 7.341 8.062 12.084 6.665 3.112-.916 2.867-4.11 3.37-7.078 2.056-2.225 4.3-5.745 7.505-5.808 5.188-.265 5.648 5.35 7.537 10.379 1.07 2.841 3.852 5.318 4.58 8.315 1.293 5.178.655 20.677-.449 23.772-1.31 3.797-6.46 5.407-9.635 9.617-1.5 1.973-2.21 4.865-3.339 6.252-2.044 2.484-5.083 3.134-6.613 5.427-.862 1.292-1.707 4.063-2.544 5.808-2.507 5.302-5.862 9.06-3.753 15.425.88 2.62 4.983 4.375 4.993 7.459.01 3.627-7.732 6.876-8.332 10.854-.448 2.96 2.4 8.241 3.34 12.092.69 2.91 6.198 4.73 7.918 6.665 2.93 3.284 5.272 7.936 7.95 12.06 5.292 8.113 9.44 18.007 14.594 25.867 2.725 4.117 6.55 7.819 8.364 12.093.931 2.156.793 4.727 1.655 6.665 2.984 6.72 16.16 13.738 22.96 17.075 3.183 1.542 6.714 2.098 9.634 3.713 4.424 2.463 13.19 9.077 15.423 12.95 1.988 3.48 3.23 11.952 4.198 17.487 1.293 7.314.014 12.93.414 20.852.258 4.283 1.638 8.591 1.69 12.886.016 1.502-.918 1.442-.987 2.977l.183 1.608c40.884 18.771 86.391 29.438 134.483 29.438 8.688 0 17.262-.307 25.776-.968.38-.64.737-1.447 1.186-2.047 1.96-2.568 3.7-4.817 4.993-7.078 1.225-7.608-3.04-12.922-1.242-19.582 1.992-7.481 12.357-12.05 19.62-15.425 2.499-1.159 5.055-3.04 7.09-3.745 5.028-1.746 11.304-.802 15.9-2.476 7.823-2.857 8.639-11.231 12.497-18.344 1.818-3.369 4.222-6.742 4.58-9.14.31-2.158-.794-4.186-.45-6.73.38-2.517 2.64-4.692 3.34-7.458.914-3.61 1.31-8.897 1.31-12.917 0-3.3-1.552-6.196-1.69-9.172-.534-10.809 3.912-12.019 7.919-17.9 2.011-2.923 2.763-6.254 4.165-8.348 6.727-10.016 18.399-14.852 17.553-29.993-.276-5.01-3.428-16.332-7.123-17.932-2.113-.917-6.96-.052-10.016-1.238-9.867-3.674-15.659-15.883-25.884-16.662-2.185-.266-4.19.895-6.647.857-4.046-.266-10.147-2.83-14.626-3.333-2.848-.309-6.654.847-8.363 0-2.608-1.264-2.872-6.06-4.994-7.49-1.673-1.156-4.953-1.552-7.504-2.539-4.112-1.576-7.372-3.415-12.115-3.745-1.466-.052-3.287.702-4.993.445-2.625-.442-4.7-3.544-7.122-5.015-3.034-1.843-5.838-2.734-7.092-5.363 2.742-8.976-4.835-11.477-6.678-16.663-.88-2.43-.483-5.354-1.242-7.522-1.087-3.105-4.164-4.9-7.536-7.49-6.042-4.64-11.399-8.998-20.033-10.061-3.797-.481-7.562 1.135-12.148.857-4.859-.309-10.96-4.55-14.595-8.696-3.534-4.048-5.254-7.682-8.332-9.617-2.915-1.871-6.784-1.817-8.776-3.713-.88-.825-.742-2.243-1.69-4.19-1.466-3.03-3.928-4.715-2.1-8.347-3.326-1.706-3.418 3.17-7.059 2.54-3.244-4.598-5.987-6.776-13.355-5.428-3.375.619-5.259 4.877-9.19 4.983-3.225.266-5.758-3.586-10.017-4.19-3.215-.441-6.87.871-9.159.445-3.563-.712-4.662-3.671-7.916-5.808-2.388-1.566-7.025-4.232-8.364-4.189-4.196.266-7.187 8.9-12.974 5.84-2.813-3.557 4.581-5.432 1.242-8.76-2.53-2.526-4.655 1.143-6.678 2.539-2.318 1.599-4.497 3.18-7.06 4.126-5.735 2.143-9.319 1.021-13.8 3.333-4.15 2.145-4.327 5.734-6.678 9.997-1.921 3.492-6.3 8.58-9.19 8.792-3.5.265-6.843-4.883-10.017-6.253-9.56-4.133-14.192 3.67-22.132 3.777-7.367.266-17.891-11.875-17.52-18.79 0-4.218 2.43-10.618 2.925-15.836.448-4.151 3.29-6.653 3.339-10.442 0-5.061-6.727-8.953-10.018-9.553-7.8-1.432-18.629 3.132-27.569-.445-1.707-2.824 2-4.775 2.958-7.522.535-1.563.225-3.646.794-5.364.983-2.654 3.779-4.71 5.024-7.522.931-2.146 1.173-5.24 2.1-7.903 1.086-3.031 3.104-4.983 3.338-7.11.31-2.806-.759-6.05-2.958-7.902zm111.615 88.201c2.83.266 3.184 6.1.294 6.57-3.12.483-4.707-4.887-1.69-6.285.517-.265 1-.282 1.396-.253v-.035z" fill="#7ebaff"/></g><path d="M419.286 79.072l-85.715 51.123v130.754l85.715-51.123zM270.282 90.51c-78.594-.432-227.48 22.266-228.139 190.806-.8 204.454 152.417 157.776 187.143 137.143 66.769-39.429 135.559-81.143 198.572-118.063 34.316-20.073 98.57-33.141 98.57 61.145 0 94.285-69.767 123.52-107.142 121.5V323.808l-85.715 50.588v181.715c4.617.947 22.089 3.247 46.148 3.379 78.594.431 227.48-22.267 228.139-190.807.8-204.453-152.417-157.775-187.143-137.142-66.769 39.428-135.559 81.143-198.572 118.062-34.316 20.073-98.57 33.141-98.57-61.144 0-94.286 69.767-123.52 107.142-121.5v159.232l85.715-50.588V93.888c-4.616-.947-22.089-3.246-46.148-3.378zm46.148 298.54l-85.715 51.124v130.753l85.715-51.123z" fill="#0a396e" fill-rule="evenodd"/></svg>