<?xml version="1.0" encoding="iso-8859-1"?>
<!-- Generator: Adobe Illustrator 18.1.1, SVG Export Plug-In . SVG Version: 6.00 Build 0)  -->
<svg version="1.1" id="Capa_1" xmlns="http://www.w3.org/2000/svg" xmlns:xlink="http://www.w3.org/1999/xlink" x="0px" y="0px"
	 viewBox="0 0 27.269 27.269" style="enable-background:new 0 0 27.269 27.269;" xml:space="preserve">
<g>
	<path d="M25.322,1.947H1.949C0.871,1.947,0,2.818,0,3.898v19.477c0,1.074,0.871,1.947,1.949,1.947h23.373
		c1.072,0,1.947-0.873,1.947-1.947V3.898C27.27,2.818,26.395,1.947,25.322,1.947z M9.314,3.41c0.537,0,0.973,0.436,0.973,0.975
		c0,0.537-0.436,0.973-0.973,0.973S8.34,4.922,8.34,4.385C8.34,3.845,8.777,3.41,9.314,3.41z M6.33,3.41
		c0.537,0,0.977,0.436,0.977,0.975c0,0.537-0.439,0.973-0.977,0.973S5.357,4.922,5.357,4.385C5.357,3.845,5.793,3.41,6.33,3.41z
		 M3.406,3.41c0.539,0,0.975,0.436,0.975,0.975c0,0.537-0.436,0.973-0.975,0.973c-0.533,0-0.971-0.436-0.971-0.973
		C2.436,3.845,2.873,3.41,3.406,3.41z M25.322,23.375H1.949V6.838h23.373C25.322,6.838,25.322,23.375,25.322,23.375z"/>
	<rect x="1.949" y="6.838" width="23.373" height="16.537"/>
	<path d="M14.801,15.027l-8.953,4.592v-1.33l7.602-3.785v-0.037l-7.602-3.782V9.353l8.953,4.574
		C14.801,13.927,14.801,15.027,14.801,15.027z"/>
	<path d="M21.424,13.793v1.234h-4.766v-1.234H21.424z"/>
	<g>
	</g>
	<g>
	</g>
	<g>
	</g>
	<g>
	</g>
	<g>
	</g>
	<g>
	</g>
	<g>
	</g>
	<g>
	</g>
	<g>
	</g>
	<g>
	</g>
	<g>
	</g>
	<g>
	</g>
	<g>
	</g>
	<g>
	</g>
	<g>
	</g>
</g>
<g>
</g>
<g>
</g>
<g>
</g>
<g>
</g>
<g>
</g>
<g>
</g>
<g>
</g>
<g>
</g>
<g>
</g>
<g>
</g>
<g>
</g>
<g>
</g>
<g>
</g>
<g>
</g>
<g>
</g>
</svg>
